<?xml version="1.0" encoding="UTF-8" standalone="no"?>
<svg
   width="16"
   height="16"
   version="1.1"
   id="svg1230"
   sodipodi:docname="io.mycitadel.Wallet-symbolic.svg"
   inkscape:version="1.2.2 (b0a8486541, 2022-12-01)"
   xmlns:inkscape="http://www.inkscape.org/namespaces/inkscape"
   xmlns:sodipodi="http://sodipodi.sourceforge.net/DTD/sodipodi-0.dtd"
   xmlns="http://www.w3.org/2000/svg"
   xmlns:svg="http://www.w3.org/2000/svg">
  <defs
     id="defs1234" />
  <sodipodi:namedview
     id="namedview1232"
     pagecolor="#505050"
     bordercolor="#eeeeee"
     borderopacity="1"
     inkscape:showpageshadow="0"
     inkscape:pageopacity="0"
     inkscape:pagecheckerboard="0"
     inkscape:deskcolor="#505050"
     showgrid="false"
     inkscape:zoom="64.1875"
     inkscape:cx="7.9376826"
     inkscape:cy="8.7088608"
     inkscape:window-width="2560"
     inkscape:window-height="1343"
     inkscape:window-x="0"
     inkscape:window-y="27"
     inkscape:window-maximized="1"
     inkscape:current-layer="svg1230" />
  <path
     style="fill:#2e3436;stroke:none;stroke-width:0.0189573;fill-opacity:1"
     d="M 2.8625521,0.40986004 1.8957297,3.4240704 c 0.2755444,0.1716015 0.5338376,0.3802835 0.7962067,0.5715817 0.078616,0.057327 0.258672,0.1425778 0.292966,0.2372504 C 3.0318785,4.3624758 2.8609408,4.6800862 2.8183245,4.8079535 2.6481259,5.3185304 2.4893016,5.8329175 2.3191031,6.3434949 2.273511,6.4803092 2.223653,6.8525359 2.0989898,6.9306398 2.0219284,6.978943 1.8697581,6.9501287 1.7819859,6.9501287 H 0.96682224 C 0.75391287,7.9788652 0.23679549,8.9407967 0,9.9643395 c 0.61131594,0.3773065 1.1823665,0.8496085 1.7630285,1.2730015 0.2207578,0.160965 0.4982739,0.454463 0.758292,0.538879 0.096133,0.0312 0.2123976,-0.09234 0.2843594,-0.143638 0.1909193,-0.136133 0.3792599,-0.276038 0.5687191,-0.414199 0.062634,-0.04567 0.1644543,-0.151658 0.246445,-0.148985 0.067033,0.0022 0.1378759,0.07383 0.1895728,0.110862 0.1396581,0.10008 0.278691,0.201043 0.4170605,0.302862 0.5080176,0.373819 1.0406229,0.722406 1.5348967,1.114083 0.1200374,0.09513 0.035129,0.221003 -0.00567,0.34343 -0.069346,0.208 -0.1328905,0.41761 -0.2022173,0.62559 -0.023713,0.07115 -0.087355,0.186294 -0.062616,0.261914 0.052131,0.159317 0.4223496,0.333971 0.5555054,0.432474 0.470407,0.347923 0.9454008,0.69105 1.4217977,1.030726 0.1341038,0.09562 0.3833356,0.364511 0.5497616,0.374578 0.069403,0.0041 0.1378002,-0.06858 0.1895732,-0.106313 0.1322266,-0.09639 0.2648713,-0.192227 0.3981033,-0.287221 0.4767189,-0.339924 0.9470872,-0.688984 1.4217971,-1.031733 0.131128,-0.09467 0.46817,-0.256738 0.524113,-0.410729 0.02703,-0.07442 -0.03305,-0.19306 -0.05649,-0.263696 -0.07122,-0.214444 -0.149629,-0.427676 -0.213137,-0.644547 -0.03192,-0.109063 -0.109706,-0.238521 -0.0066,-0.327033 0.475145,-0.408036 1.02957,-0.744604 1.534156,-1.115921 0.125764,-0.09254 0.253574,-0.182313 0.379147,-0.275127 0.04293,-0.03173 0.104283,-0.0953 0.162578,-0.08974 0.07759,0.0074 0.174028,0.109024 0.235525,0.153042 0.197061,0.141061 0.390653,0.286958 0.587676,0.428057 0.07097,0.05083 0.190067,0.179317 0.284359,0.165003 0.08008,-0.01215 0.163488,-0.100201 0.227488,-0.146047 0.171541,-0.122843 0.342252,-0.24726 0.511863,-0.37272 C 14.788989,10.904849 15.377348,10.427921 16,10.040169 15.840207,9.3496868 15.558671,8.6660294 15.336472,7.9927798 15.247544,7.7233589 15.197896,7.2984879 15.030501,7.069901 14.978994,6.9995501 14.843678,7.02596 14.767736,7.02596 h -0.587678 c -0.07,0 -0.179962,0.020002 -0.236776,-0.030386 C 13.827965,6.8932805 13.786487,6.5656417 13.737727,6.4193294 13.565425,5.9024394 13.404495,5.3817398 13.232194,4.8648308 13.181805,4.7136845 13.136138,4.5612299 13.086791,4.4098557 c -0.01848,-0.05672 -0.06652,-0.1432412 -0.04015,-0.2028435 0.04233,-0.095659 0.216207,-0.1791842 0.299297,-0.2386721 0.25166,-0.1801569 0.495716,-0.380744 0.758294,-0.5442697 C 13.891305,2.3952391 13.374206,1.4333647 13.13741,0.40986004 h -2.23696 -0.62559 c -0.07848,0 -0.204493,-0.0237913 -0.2764171,0.0114325 C 9.9264209,0.45659134 9.9061349,0.6058228 9.8830651,0.67526344 9.8161081,0.87687435 9.7544021,1.0802483 9.6871791,1.281897 9.6646411,1.349536 9.6479361,1.4666737 9.5844499,1.5088537 9.5246029,1.5486267 9.4143843,1.5283417 9.3459481,1.5283417 H 8.7582716 c -0.748188,0 -1.5297404,0.0658 -2.2745916,-0.00113 C 6.3563058,1.5157861 6.3400215,1.3636166 6.3064675,1.2629343 6.2371215,1.054935 6.1735575,0.84528613 6.1042496,0.63734362 6.0834151,0.57482236 6.0668655,0.45330594 6.0015203,0.42128704 5.9295963,0.38606425 5.8035869,0.40985651 5.7251036,0.40985651 H 5.0995128 2.8625521 M 9.0995031,13.357695 c -0.2535541,0.182142 -0.5042642,0.368321 -0.758292,0.549762 -0.083697,0.05977 -0.1992604,0.185194 -0.3033169,0.20163 -0.128341,0.02027 -0.3727761,-0.231432 -0.4739325,-0.304456 -0.1514309,-0.109345 -0.5076572,-0.278235 -0.5853824,-0.448699 -0.040566,-0.08899 0.05111,-0.253231 0.079847,-0.339468 0.09454,-0.283603 0.1855164,-0.568738 0.2780467,-0.853079 C 7.0059724,12.02437 6.6982768,11.717832 6.4075666,11.507918 5.7938809,11.064828 5.1783751,10.623693 4.5687086,10.175068 4.367344,10.026879 4.1640845,9.8812867 3.9620751,9.7339884 3.8697344,9.6666524 3.7667582,9.5625385 3.6587585,9.5228803 3.5563703,9.4852702 3.4311193,9.6219323 3.3554418,9.6771165 3.1262669,9.8442252 2.8608459,10.115391 2.5971498,10.219068 2.5016239,10.256623 2.3838422,10.132566 2.3127904,10.080282 2.0724686,9.9034287 1.7126401,9.7315051 1.5243751,9.5005674 1.4554276,9.4159606 1.5563372,9.2387667 1.5861001,9.1491745 1.6845642,8.8526826 1.8311989,8.5288351 1.8767725,8.2202671 H 2.6919364 L 3.0089404,8.2007783 3.1416033,7.8790351 3.4188347,7.0259567 4.4928796,3.7273864 C 4.1956101,3.6023449 3.9209376,3.3302318 3.6587585,3.1423649 3.583555,3.0884882 3.4132422,3.007901 3.3920101,2.9105173 3.3528617,2.7309916 3.5542279,2.3866514 3.6071948,2.2108034 3.6455657,2.0834483 3.6891852,1.759127 3.8011279,1.6805298 3.868692,1.6330792 4.015819,1.6610421 4.0947765,1.6610421 h 0.739334 c 0.089857,0 0.2387108,-0.030975 0.2927387,0.059678 0.1334971,0.2239807 0.1808149,0.5457996 0.263336,0.7934008 0.027849,0.083545 0.049197,0.2507672 0.1473932,0.2783311 0.1116393,0.031336 0.2614968,0.00604 0.3770985,0.00604 h 0.7772492 2.5592352 0.8909927 c 0.09344,0 0.271754,0.034009 0.352246,-0.019489 0.07066,-0.046938 0.09015,-0.1892128 0.115374,-0.2648713 0.06512,-0.195374 0.125839,-0.3919801 0.18963,-0.5876763 0.02291,-0.070331 0.03995,-0.1824829 0.0954,-0.2350136 0.05949,-0.056323 0.19579,-0.030389 0.271052,-0.030389 h 0.758291 c 0.08145,0 0.243849,-0.031925 0.298047,0.043944 0.170218,0.2382174 0.222198,0.6636951 0.3149,0.9418366 0.02895,0.086824 0.113213,0.2318856 0.04377,0.3134777 -0.191202,0.2247009 -0.531239,0.3938759 -0.770462,0.5665957 -0.07401,0.05344 -0.245478,0.1357722 -0.249553,0.2386914 -0.0038,0.095639 0.06316,0.2118858 0.08986,0.3030325 0.07474,0.2552412 0.167032,0.5049849 0.247961,0.7582918 0.262634,0.8220268 0.548509,1.6381949 0.797419,2.4644488 0.07096,0.2355635 0.162047,0.4649848 0.230123,0.7014202 0.02352,0.081669 0.04416,0.2352602 0.121686,0.2838285 0.06984,0.04377 0.199905,0.01949 0.279091,0.01949 0.220756,0 0.524945,-0.054993 0.736812,0.00603 0.0899,0.025896 0.109611,0.1825398 0.135223,0.2593736 0.07777,0.2332695 0.149762,0.4682264 0.227487,0.7014204 0.02435,0.073003 0.09772,0.2044926 0.06914,0.2810612 -0.04529,0.1212508 -0.289307,0.2350324 -0.391411,0.3094779 -0.157935,0.1151654 -0.316759,0.2292139 -0.473933,0.3454029 -0.05534,0.0409 -0.133156,0.11909 -0.208531,0.102693 -0.08747,-0.01904 -0.175757,-0.112199 -0.246449,-0.163743 C 12.992401,10.004455 12.807889,9.8732139 12.625558,9.7390533 12.553996,9.6863883 12.41843,9.5431674 12.32224,9.5651576 12.236896,9.5846634 12.145105,9.6785605 12.075796,9.7298206 11.899967,9.8598679 11.723058,9.989024 11.544993,10.116 c -0.64836,0.462292 -1.285666,0.940017 -1.9336453,1.40284 -0.2098192,0.149857 -0.4156575,0.305288 -0.6255909,0.454975 -0.070597,0.05034 -0.2060847,0.113137 -0.2424261,0.19526 -0.034257,0.07744 0.048319,0.23945 0.072303,0.316587 0.090672,0.291772 0.1908053,0.581022 0.2838668,0.872036 z"
     id="path508"
     inkscape:label="logo" />
</svg>
