<?xml version="1.0" encoding="UTF-8" standalone="no"?>
<svg
   width="33.750061mm"
   height="33.750061mm"
   viewBox="0 0 33.750061 33.750061"
   version="1.1"
   id="svg974"
   sodipodi:docname="io.mycitadel.Wallet.svg"
   inkscape:version="1.2.2 (b0a8486541, 2022-12-01)"
   xmlns:inkscape="http://www.inkscape.org/namespaces/inkscape"
   xmlns:sodipodi="http://sodipodi.sourceforge.net/DTD/sodipodi-0.dtd"
   xmlns="http://www.w3.org/2000/svg"
   xmlns:svg="http://www.w3.org/2000/svg"
   xmlns:rdf="http://www.w3.org/1999/02/22-rdf-syntax-ns#"
   xmlns:cc="http://creativecommons.org/ns#"
   xmlns:dc="http://purl.org/dc/elements/1.1/">
  <sodipodi:namedview
     id="namedview350"
     pagecolor="#505050"
     bordercolor="#eeeeee"
     borderopacity="1"
     inkscape:showpageshadow="0"
     inkscape:pageopacity="0"
     inkscape:pagecheckerboard="0"
     inkscape:deskcolor="#505050"
     inkscape:document-units="mm"
     showgrid="false"
     inkscape:zoom="6.2861679"
     inkscape:cx="69.279091"
     inkscape:cy="40.247095"
     inkscape:window-width="2560"
     inkscape:window-height="1343"
     inkscape:window-x="0"
     inkscape:window-y="27"
     inkscape:window-maximized="1"
     inkscape:current-layer="svg974" />
  <defs
     id="defs968">
    <clipPath
       clipPathUnits="userSpaceOnUse"
       id="clipPath18689">
      <rect
         clip-path="none"
         transform="rotate(45)"
         ry="32.000008"
         rx="32.000008"
         y="123.9986"
         x="486.03726"
         height="362.94299"
         width="362.94299"
         id="rect18691"
         style="display:inline;opacity:1;vector-effect:none;fill:#4a86cf;fill-opacity:1;stroke:none;stroke-width:26.0669;stroke-linecap:butt;stroke-linejoin:miter;stroke-miterlimit:4;stroke-dasharray:none;stroke-dashoffset:0;stroke-opacity:1;marker:none;marker-start:none;marker-mid:none;marker-end:none;paint-order:normal;enable-background:new" />
    </clipPath>
    <clipPath
       clipPathUnits="userSpaceOnUse"
       id="clipPath18689-3">
      <rect
         clip-path="none"
         transform="rotate(45)"
         ry="32.000008"
         rx="32.000008"
         y="123.9986"
         x="486.03726"
         height="362.94299"
         width="362.94299"
         id="rect18691-6"
         style="display:inline;opacity:1;vector-effect:none;fill:#4a86cf;fill-opacity:1;stroke:none;stroke-width:26.0669;stroke-linecap:butt;stroke-linejoin:miter;stroke-miterlimit:4;stroke-dasharray:none;stroke-dashoffset:0;stroke-opacity:1;marker:none;marker-start:none;marker-mid:none;marker-end:none;paint-order:normal;enable-background:new" />
    </clipPath>
  </defs>
  <metadata
     id="metadata971">
    <rdf:RDF>
      <cc:Work
         rdf:about="">
        <dc:format>image/svg+xml</dc:format>
        <dc:type
           rdf:resource="http://purl.org/dc/dcmitype/StillImage" />
        <dc:title />
      </cc:Work>
    </rdf:RDF>
  </metadata>
  <path
     style="fill:#954ceb;stroke:none;stroke-width:0.034376"
     d="M 7.5591251,3.0497799 5.8059465,8.515571 c 0.4996557,0.311172 0.9680294,0.6895836 1.4437939,1.0364725 0.1425575,0.103953 0.4690607,0.258542 0.5312477,0.430216 0.085184,0.2349605 -0.224785,0.8108965 -0.3020626,1.0427635 -0.3086282,0.92585 -0.5966307,1.858609 -0.9052588,2.78446 -0.082674,0.248091 -0.1730834,0.923065 -0.3991403,1.064694 -0.1397386,0.08759 -0.4156751,0.03534 -0.5748362,0.03534 H 4.1215203 c -0.3860774,1.86545 -1.3237872,3.60976 -1.7531783,5.465792 1.1085242,0.684186 2.1440339,1.540631 3.1969721,2.308385 0.4003091,0.291887 0.9035401,0.824097 1.3750419,0.977174 0.1743209,0.05658 0.3851492,-0.167446 0.5156407,-0.260467 0.3462014,-0.246855 0.6877274,-0.50055 1.0312814,-0.751083 0.113578,-0.08281 0.298212,-0.275008 0.446889,-0.270161 0.121553,0.004 0.250016,0.133895 0.34376,0.201031 0.253248,0.181471 0.505362,0.364558 0.7562729,0.549192 0.921209,0.677861 1.887004,1.309968 2.783291,2.020211 0.217669,0.172499 0.0637,0.400756 -0.01028,0.622757 -0.125747,0.377174 -0.240976,0.75727 -0.366689,1.134409 -0.043,0.129014 -0.158405,0.337814 -0.113544,0.47494 0.09453,0.288896 0.765864,0.605602 1.007321,0.78422 0.853008,0.630904 1.714334,1.25311 2.578204,1.86906 0.243176,0.173393 0.695118,0.660983 0.996905,0.679237 0.125851,0.0076 0.249879,-0.124338 0.343761,-0.192781 0.239772,-0.174802 0.480302,-0.348573 0.721897,-0.520832 0.864454,-0.616396 1.717392,-1.249363 2.578203,-1.870882 0.237779,-0.171674 0.848951,-0.465554 0.950394,-0.744791 0.04902,-0.13496 -0.05992,-0.350086 -0.10244,-0.478171 -0.129151,-0.388862 -0.27133,-0.775523 -0.38649,-1.168785 -0.05789,-0.197766 -0.198934,-0.43252 -0.01207,-0.593021 0.861601,-0.73991 1.866963,-1.350223 2.78195,-2.023546 0.228051,-0.16779 0.459814,-0.330595 0.687521,-0.4989 0.07786,-0.05755 0.189103,-0.172808 0.294809,-0.162736 0.140701,0.01344 0.315572,0.197697 0.427088,0.277518 0.357339,0.255792 0.708387,0.52035 1.065657,0.776211 0.128704,0.09216 0.344654,0.325163 0.515641,0.299209 0.145204,-0.02204 0.296459,-0.181712 0.412512,-0.264833 0.311035,-0.222757 0.620592,-0.448367 0.928153,-0.675868 1.069749,-0.791233 2.136644,-1.656066 3.265725,-2.359193 -0.289681,-1.252079 -0.8002,-2.491783 -1.203122,-3.712614 -0.161258,-0.488552 -0.251289,-1.258988 -0.55483,-1.673494 -0.0934,-0.12757 -0.338776,-0.07968 -0.476486,-0.07968 h -1.065657 c -0.126916,0 -0.326332,0.03627 -0.429358,-0.0551 -0.209109,-0.185493 -0.284323,-0.779614 -0.372739,-1.044928 -0.312443,-0.937298 -0.604262,-1.881504 -0.916706,-2.818836 -0.09137,-0.27408 -0.174183,-0.550532 -0.263664,-0.825025 -0.03352,-0.102853 -0.120625,-0.259745 -0.07281,-0.3678245 0.07676,-0.173461 0.392058,-0.324922 0.542729,-0.432794 C 27.02542,9.1758317 27.467977,8.8120988 27.94412,8.515571 27.558008,6.6499487 26.620332,4.9057426 26.190941,3.0497799 h -4.056373 -1.134409 c -0.142317,0 -0.370815,-0.043142 -0.501238,0.020729 -0.130594,0.064008 -0.167377,0.3346164 -0.209212,0.4605359 -0.121416,0.3655892 -0.23331,0.7343755 -0.355208,1.1000335 -0.04087,0.1226537 -0.07116,0.3350632 -0.186284,0.4115499 -0.108525,0.072121 -0.308387,0.035339 -0.432485,0.035339 h -1.065657 c -1.35672,0 -2.773941,0.1193193 -4.12461,-0.00203 C 13.894492,5.0552082 13.864963,4.7792719 13.804118,4.5967006 13.67837,4.2195267 13.563107,3.839362 13.437428,3.4622913 13.399648,3.348919 13.369638,3.1285686 13.251145,3.0705074 13.120722,3.0066364 12.892224,3.0497784 12.749907,3.0497784 H 11.615498 7.5591251 M 18.868844,26.52862 c -0.45978,0.330285 -0.914403,0.667892 -1.375042,0.996905 -0.15177,0.108388 -0.361327,0.33582 -0.550017,0.365624 -0.232726,0.03675 -0.67597,-0.419663 -0.859401,-0.55208 -0.274596,-0.198281 -0.920556,-0.504537 -1.061498,-0.813646 -0.07356,-0.161361 0.09268,-0.459195 0.144792,-0.615572 0.171433,-0.514266 0.336404,-1.031316 0.504193,-1.546922 -0.599312,-0.25208 -1.157269,-0.80794 -1.684426,-1.188586 -1.112821,-0.803472 -2.228943,-1.603402 -3.334476,-2.416911 -0.365143,-0.268718 -0.7337219,-0.532726 -1.1000339,-0.799828 -0.167445,-0.122103 -0.354176,-0.310897 -0.550016,-0.382811 -0.185665,-0.0682 -0.412788,0.179615 -0.550017,0.279683 -0.415572,0.303025 -0.896871,0.79474 -1.3750419,0.982743 -0.173221,0.0681 -0.3867993,-0.156858 -0.5156407,-0.251667 C 6.1264343,20.264857 5.4739426,19.953101 5.1325541,19.534332 5.0075284,19.380911 5.1905121,19.059598 5.2444825,18.897137 5.4230317,18.359496 5.6889304,17.77225 5.7715704,17.212711 h 1.47817 l 0.5748367,-0.03534 0.240563,-0.58343 0.502715,-1.546922 1.9476099,-5.9814327 C 9.9764141,8.8388434 9.4783391,8.3454097 9.0029191,8.0047431 8.8665491,7.9070461 8.5577141,7.7609137 8.5192131,7.584324 c -0.07099,-0.3255411 0.294156,-0.9499476 0.390203,-1.2688198 0.06958,-0.2309383 0.148676,-0.8190436 0.351667,-0.9615668 0.122516,-0.086043 0.389308,-0.035339 0.532485,-0.035339 h 1.3406649 c 0.162943,0 0.432864,-0.05617 0.530835,0.1082159 0.242076,0.4061529 0.327879,0.9897206 0.477518,1.4387062 0.0505,0.1514952 0.08921,0.4547264 0.267274,0.5047091 0.20244,0.056824 0.474183,0.010932 0.683808,0.010932 h 1.409418 4.640766 1.615674 c 0.16944,0 0.492781,0.061671 0.638741,-0.035338 0.12812,-0.085115 0.163459,-0.3431074 0.209213,-0.4803021 0.118082,-0.3542796 0.228188,-0.7107935 0.343864,-1.0656574 0.04156,-0.1275351 0.07243,-0.3309038 0.17298,-0.4261599 0.107872,-0.1021312 0.355036,-0.055105 0.491509,-0.055105 h 1.375041 c 0.14768,0 0.44218,-0.057889 0.540461,0.079684 0.308662,0.4319693 0.402921,1.2035053 0.57102,1.7078707 0.05249,0.1574422 0.205294,0.4204877 0.07937,0.5684421 -0.346716,0.4074594 -0.96332,0.7142311 -1.397111,1.0274313 -0.134204,0.096906 -0.445135,0.2462013 -0.452526,0.4328288 -0.0069,0.1734272 0.114541,0.3842214 0.162942,0.5495014 0.135511,0.4628395 0.302888,0.9157095 0.449639,1.3750415 0.476246,1.490615 0.994636,2.970606 1.445994,4.468886 0.12867,0.427157 0.293846,0.843176 0.417291,1.271914 0.04263,0.148092 0.08006,0.426607 0.22066,0.514678 0.126641,0.07937 0.362495,0.03534 0.506084,0.03534 0.400309,0 0.951907,-0.09972 1.336093,0.01093 0.163012,0.04696 0.198763,0.331007 0.245204,0.470333 0.141011,0.422997 0.271571,0.849054 0.412513,1.271914 0.04414,0.132382 0.177209,0.370815 0.12537,0.50966 -0.08213,0.219869 -0.524613,0.426194 -0.709762,0.561189 -0.286388,0.208834 -0.57439,0.415641 -0.859402,0.626331 -0.100343,0.07418 -0.241457,0.215951 -0.378136,0.186215 -0.158611,-0.03451 -0.3187,-0.203437 -0.446889,-0.296905 -0.331694,-0.241836 -0.666276,-0.479821 -0.996905,-0.7231 -0.12977,-0.0955 -0.375593,-0.355208 -0.550017,-0.315332 -0.154761,0.03537 -0.321209,0.205638 -0.446888,0.29859 -0.318838,0.23582 -0.639635,0.470024 -0.962529,0.700275 -1.175696,0.838294 -2.33135,1.70457 -3.506357,2.543827 -0.380474,0.271743 -0.753729,0.553592 -1.13441,0.825025 -0.128016,0.09127 -0.373702,0.205156 -0.439601,0.354073 -0.06212,0.140427 0.08762,0.434204 0.131111,0.57408 0.16442,0.529082 0.345995,1.053592 0.514747,1.581299 z"
     id="path508"
     inkscape:label="logo" />
</svg>
